<?xml version="1.0" encoding="utf-8"?>
<!-- Generator: Adobe Illustrator 16.0.0, SVG Export Plug-In . SVG Version: 6.00 Build 0)  -->
<!DOCTYPE svg PUBLIC "-//W3C//DTD SVG 1.1//EN" "http://www.w3.org/Graphics/SVG/1.1/DTD/svg11.dtd">
<svg version="1.1" id="Layer_1" xmlns="http://www.w3.org/2000/svg" xmlns:xlink="http://www.w3.org/1999/xlink" x="0px" y="0px"
	 width="64px" height="64px" viewBox="-199.5 27.5 64 64" enable-background="new -199.5 27.5 64 64" xml:space="preserve">
<path fill="#B3B3B3" d="M-170.559,59.286l-28.328,28.328c-0.787,0.786-0.787,2.062,0,2.849c0.393,0.395,0.909,0.59,1.424,0.59
	c0.516,0,1.031-0.195,1.424-0.59l28.541-28.541l28.541,28.541c0.395,0.395,0.909,0.59,1.424,0.59c0.516,0,1.031-0.195,1.424-0.59
	c0.787-0.787,0.787-2.062,0-2.849l-28.326-28.328l28.346-28.348c0.787-0.787,0.787-2.062,0-2.849c-0.787-0.786-2.062-0.786-2.848,0
	l-28.56,28.562l-28.562-28.561c-0.787-0.786-2.061-0.786-2.848,0c-0.787,0.787-0.787,2.062,0,2.849L-170.559,59.286z"/>
</svg>
