<?xml version="1.0" encoding="utf-8"?>
<!-- Generator: Adobe Illustrator 16.0.0, SVG Export Plug-In . SVG Version: 6.00 Build 0)  -->
<!DOCTYPE svg PUBLIC "-//W3C//DTD SVG 1.1//EN" "http://www.w3.org/Graphics/SVG/1.1/DTD/svg11.dtd">
<svg version="1.1" id="Capa_1" xmlns="http://www.w3.org/2000/svg" xmlns:xlink="http://www.w3.org/1999/xlink" x="0px" y="0px"
	 width="54px" height="54px" viewBox="-26.5 27.5 54 54" enable-background="new -26.5 27.5 54 54" xml:space="preserve">
<path fill="#ECD018" d="M0.5,81.5c-3.874,0-7.56-0.82-10.894-2.295c-0.057-0.016-0.109-0.04-0.158-0.071
	c-4.568-2.058-8.466-5.351-11.264-9.449c-0.053-0.052-0.095-0.114-0.124-0.183C-24.819,65.208-26.5,60.047-26.5,54.5
	c0-10.915,6.511-20.338,15.853-24.59c0.096-0.101,0.229-0.164,0.378-0.169C-6.968,28.3-3.326,27.5,0.5,27.5
	c14.888,0,27,12.111,27,27c0,5.547-1.682,10.707-4.561,15.001c-0.029,0.069-0.072,0.132-0.125,0.183
	C17.95,76.812,9.762,81.5,0.5,81.5z M-7.236,79.223c2.444,0.767,5.042,1.18,7.736,1.18s5.292-0.413,7.736-1.18H-7.236z
	 M-10.118,78.125h21.193c0.013,0,0.026,0.001,0.04,0.002c4.086-1.844,7.611-4.717,10.244-8.286h-36.871
	c2.824,2.849,5.761,4.646,5.806,4.673c0.259,0.156,0.342,0.494,0.186,0.753c-0.157,0.26-0.495,0.343-0.754,0.186
	c-0.204-0.123-3.683-2.251-6.766-5.611h-3.319C-17.728,73.409-14.202,76.282-10.118,78.125z M-16.542,68.743h38.667
	c2.609-3.946,4.166-8.645,4.271-13.694h-48.122c0.187,2.75,0.752,6.498,2.339,9.625C-18.635,66.15-17.626,67.521-16.542,68.743z
	 M-21.126,68.743h3.132c-0.895-1.093-1.72-2.29-2.37-3.573c-1.7-3.348-2.288-7.27-2.472-10.121h-2.561
	C-25.292,60.098-23.734,64.797-21.126,68.743z M-21.783,53.951h48.179c-0.104-4.972-1.615-9.603-4.15-13.512H0.299
	c0.098,0.626,0.129,1.273,0.091,1.935c-0.142,2.458-1.229,4.821-3.062,6.653c-1.833,1.833-4.196,2.921-6.654,3.062
	c-2.483,0.143-4.762-0.692-6.423-2.353c-1.66-1.66-2.496-3.941-2.353-6.423c0.057-0.982,0.265-1.95,0.61-2.875h-3.755
	c-2.536,3.909-4.047,8.54-4.15,13.512h2.505c-0.057-1.631,0.014-2.725,0.022-2.844c0.021-0.302,0.279-0.527,0.585-0.51
	c0.302,0.021,0.531,0.283,0.51,0.586C-21.776,51.212-21.846,52.301-21.783,53.951z M-7.844,34.68c-0.159,0-0.318,0.006-0.479,0.014
	c-2.189,0.127-4.299,1.102-5.941,2.743c-1.643,1.643-2.617,3.752-2.743,5.94c-0.125,2.166,0.597,4.148,2.033,5.584
	c1.436,1.436,3.42,2.157,5.584,2.033c2.188-0.126,4.298-1.1,5.941-2.742c3.373-3.373,3.691-8.543,0.709-11.525
	C-4.068,35.398-5.866,34.68-7.844,34.68z M0.051,39.343h21.442c-2.663-3.679-6.267-6.632-10.456-8.505h-21.074
	c-4.19,1.873-7.793,4.826-10.457,8.505h3.489c0.5-0.972,1.161-1.878,1.965-2.683c1.833-1.832,4.196-2.92,6.654-3.062
	c2.481-0.146,4.763,0.692,6.423,2.353C-1.01,36.904-0.329,38.061,0.051,39.343z M-7.119,29.74H8.119
	c-2.41-0.742-4.969-1.143-7.619-1.143S-4.709,28.998-7.119,29.74z M-8.856,43.393h-0.12c-0.303,0-0.549-0.246-0.549-0.549
	s0.246-0.549,0.549-0.549h0.12c0.303,0,0.549,0.246,0.549,0.549S-8.553,43.393-8.856,43.393z"/>
</svg>
