<?xml version="1.0" standalone="no"?>
<!DOCTYPE svg PUBLIC "-//W3C//DTD SVG 20010904//EN"
 "http://www.w3.org/TR/2001/REC-SVG-20010904/DTD/svg10.dtd">
<svg version="1.0" xmlns="http://www.w3.org/2000/svg"
 width="700.000000pt" height="700.000000pt" viewBox="0 0 700.000000 700.000000"
 preserveAspectRatio="xMidYMid meet">
<metadata>
Created by potrace 1.11, written by Peter Selinger 2001-2013
</metadata>
<g transform="translate(0.000000,700.000000) scale(0.100000,-0.100000)"
fill="#000000" stroke="none">
<path d="M99 6272 c-35 -9 -61 -28 -79 -58 -20 -31 -20 -64 -20 -2708 0 -2914
-4 -2721 56 -2761 29 -20 74 -20 3444 -20 3276 0 3416 1 3442 18 14 10 33 33
42 52 14 30 16 286 16 2704 0 2908 4 2716 -56 2756 -29 20 -78 20 -3430 20
-1871 0 -3408 -1 -3415 -3z m6656 -2772 l0 -2534 -3240 -1 c-1782 0 -3247 1
-3256 3 -16 4 -17 191 -17 2530 0 1390 1 2529 3 2532 2 3 1467 5 3257 5 l3253
-1 0 -2534z"/>
<path d="M1855 4943 c-142 -25 -198 -46 -297 -111 -301 -196 -388 -619 -190
-921 128 -194 329 -302 561 -303 53 0 117 5 143 11 260 61 455 256 513 511 79
354 -148 718 -500 801 -50 11 -192 19 -230 12z m195 -255 c136 -42 235 -138
291 -283 18 -46 20 -175 3 -237 -48 -186 -219 -320 -407 -319 -148 1 -252 53
-355 176 -7 9 -24 40 -38 69 -137 300 92 632 421 608 28 -2 66 -8 85 -14z"/>
<path d="M4801 4222 c-28 -4 -183 -160 -340 -341 -9 -11 -41 -46 -71 -79 -30
-32 -95 -103 -145 -158 -49 -54 -103 -113 -120 -130 -16 -18 -45 -49 -64 -70
-69 -77 -327 -360 -377 -414 -29 -30 -69 -74 -90 -98 l-39 -43 -290 292 c-164
165 -304 297 -323 305 -48 21 -101 3 -165 -54 -29 -26 -84 -74 -121 -107 -38
-33 -74 -65 -80 -70 -6 -6 -105 -94 -221 -195 -115 -102 -215 -189 -221 -195
-6 -5 -42 -37 -79 -70 -148 -129 -351 -308 -380 -334 -16 -15 -86 -76 -155
-136 -69 -60 -130 -114 -136 -120 -6 -5 -42 -37 -80 -70 -37 -33 -75 -67 -84
-75 -9 -8 -47 -42 -85 -75 -39 -33 -72 -62 -75 -65 -3 -3 -61 -54 -130 -114
-205 -179 -214 -192 -199 -265 11 -50 48 -82 103 -88 39 -5 51 -2 83 23 21 15
43 33 49 39 6 5 39 35 74 65 35 30 68 60 74 65 6 6 47 42 91 80 44 38 96 83
115 101 19 17 62 55 95 84 33 29 74 65 90 79 53 47 449 395 479 421 16 14 34
30 40 35 6 6 49 44 96 85 47 41 87 77 90 80 3 3 79 70 169 149 91 79 179 156
195 171 17 15 76 67 131 115 55 49 120 106 144 127 l44 39 636 -634 c482 -481
643 -636 665 -640 90 -15 163 62 141 150 -4 18 -110 132 -307 329 l-300 302
38 43 c22 24 58 64 80 89 23 25 54 59 69 75 15 17 66 72 113 124 48 52 94 102
102 111 8 9 58 63 110 120 52 57 102 110 110 120 48 54 323 356 435 476 l50
54 30 -26 c17 -14 68 -61 115 -104 47 -43 94 -87 106 -97 12 -10 70 -63 130
-119 60 -55 141 -129 179 -164 39 -35 93 -85 120 -110 28 -26 82 -75 120 -110
39 -35 77 -71 86 -79 9 -9 58 -54 110 -101 51 -47 100 -92 109 -100 9 -8 65
-60 125 -115 61 -55 116 -106 123 -113 47 -44 121 -47 163 -6 32 31 49 78 42
116 -6 30 -37 64 -178 193 -60 55 -116 107 -125 115 -8 8 -65 60 -125 115 -61
54 -132 120 -160 145 -27 26 -81 76 -119 111 -39 35 -84 78 -102 94 -18 17
-63 58 -100 91 -38 34 -85 77 -105 95 -31 29 -170 157 -250 230 -146 134 -215
196 -231 207 -25 18 -68 29 -97 24z"/>
</g>
</svg>
