<svg version="1" xmlns="http://www.w3.org/2000/svg" width="933.333" height="933.333" viewBox="0 0 700.000000 700.000000"><path d="M9.9 72.8c-3.5.9-6.1 2.8-7.9 5.8-2 3.1-2 6.4-2 270.8 0 291.4-.4 272.1 5.6 276.1 2.9 2 7.4 2 344.4 2 327.6 0 341.6-.1 344.2-1.8 1.4-1 3.3-3.3 4.2-5.2 1.4-3 1.6-28.6 1.6-270.4 0-290.8.4-271.6-5.6-275.6-2.9-2-7.8-2-343-2-187.1 0-340.8.1-341.5.3zM675.5 350v253.4l-324 .1c-178.2 0-324.7-.1-325.6-.3-1.6-.4-1.7-19.1-1.7-253 0-139 .1-252.9.3-253.2.2-.3 146.7-.5 325.7-.5l325.3.1V350z"/><path d="M185.5 205.7c-14.2 2.5-19.8 4.6-29.7 11.1-30.1 19.6-38.8 61.9-19 92.1 12.8 19.4 32.9 30.2 56.1 30.3 5.3 0 11.7-.5 14.3-1.1 26-6.1 45.5-25.6 51.3-51.1 7.9-35.4-14.8-71.8-50-80.1-5-1.1-19.2-1.9-23-1.2zm19.5 25.5c13.6 4.2 23.5 13.8 29.1 28.3 1.8 4.6 2 17.5.3 23.7-4.8 18.6-21.9 32-40.7 31.9-14.8-.1-25.2-5.3-35.5-17.6-.7-.9-2.4-4-3.8-6.9-13.7-30 9.2-63.2 42.1-60.8 2.8.2 6.6.8 8.5 1.4zM480.1 277.8c-2.8.4-18.3 16-34 34.1-.9 1.1-4.1 4.6-7.1 7.9-3 3.2-9.5 10.3-14.5 15.8-4.9 5.4-10.3 11.3-12 13-1.6 1.8-4.5 4.9-6.4 7-6.9 7.7-32.7 36-37.7 41.4-2.9 3-6.9 7.4-9 9.8l-3.9 4.3-29-29.2c-16.4-16.5-30.4-29.7-32.3-30.5-4.8-2.1-10.1-.3-16.5 5.4-2.9 2.6-8.4 7.4-12.1 10.7-3.8 3.3-7.4 6.5-8 7-.6.6-10.5 9.4-22.1 19.5-11.5 10.2-21.5 18.9-22.1 19.5-.6.5-4.2 3.7-7.9 7-14.8 12.9-35.1 30.8-38 33.4-1.6 1.5-8.6 7.6-15.5 13.6s-13 11.4-13.6 12c-.6.5-4.2 3.7-8 7-3.7 3.3-7.5 6.7-8.4 7.5-.9.8-4.7 4.2-8.5 7.5-3.9 3.3-7.2 6.2-7.5 6.5-.3.3-6.1 5.4-13 11.4-20.5 17.9-21.4 19.2-19.9 26.5 1.1 5 4.8 8.2 10.3 8.8 3.9.5 5.1.2 8.3-2.3 2.1-1.5 4.3-3.3 4.9-3.9.6-.5 3.9-3.5 7.4-6.5 3.5-3 6.8-6 7.4-6.5.6-.6 4.7-4.2 9.1-8 4.4-3.8 9.6-8.3 11.5-10.1 1.9-1.7 6.2-5.5 9.5-8.4 3.3-2.9 7.4-6.5 9-7.9 5.3-4.7 44.9-39.5 47.9-42.1 1.6-1.4 3.4-3 4-3.5.6-.6 4.9-4.4 9.6-8.5 4.7-4.1 8.7-7.7 9-8 .3-.3 7.9-7 16.9-14.9 9.1-7.9 17.9-15.6 19.5-17.1 1.7-1.5 7.6-6.7 13.1-11.5 5.5-4.9 12-10.6 14.4-12.7l4.4-3.9 63.6 63.4c48.2 48.1 64.3 63.6 66.5 64 9 1.5 16.3-6.2 14.1-15-.4-1.8-11-13.2-30.7-32.9l-30-30.2 3.8-4.3c2.2-2.4 5.8-6.4 8-8.9 2.3-2.5 5.4-5.9 6.9-7.5 1.5-1.7 6.6-7.2 11.3-12.4 4.8-5.2 9.4-10.2 10.2-11.1.8-.9 5.8-6.3 11-12s10.2-11 11-12c4.8-5.4 32.3-35.6 43.5-47.6l5-5.4 3 2.6c1.7 1.4 6.8 6.1 11.5 10.4 4.7 4.3 9.4 8.7 10.6 9.7 1.2 1 7 6.3 13 11.9 6 5.5 14.1 12.9 17.9 16.4 3.9 3.5 9.3 8.5 12 11 2.8 2.6 8.2 7.5 12 11 3.9 3.5 7.7 7.1 8.6 7.9.9.9 5.8 5.4 11 10.1 5.1 4.7 10 9.2 10.9 10 .9.8 6.5 6 12.5 11.5 6.1 5.5 11.6 10.6 12.3 11.3 4.7 4.4 12.1 4.7 16.3.6 3.2-3.1 4.9-7.8 4.2-11.6-.6-3-3.7-6.4-17.8-19.3-6-5.5-11.6-10.7-12.5-11.5-.8-.8-6.5-6-12.5-11.5-6.1-5.4-13.2-12-16-14.5-2.7-2.6-8.1-7.6-11.9-11.1-3.9-3.5-8.4-7.8-10.2-9.4-1.8-1.7-6.3-5.8-10-9.1-3.8-3.4-8.5-7.7-10.5-9.5-3.1-2.9-17-15.7-25-23-14.6-13.4-21.5-19.6-23.1-20.7-2.5-1.8-6.8-2.9-9.7-2.4z"/></svg>